<svg xmlns="http://www.w3.org/2000/svg" width="150" height="150" viewBox="0 0 150 150" fill="none">
<path d="M75 4.6875C36.1687 4.6875 4.6875 36.1664 4.6875 75C4.6875 113.831 36.1687 145.312 75 145.312C113.831 145.312 145.312 113.831 145.312 75C145.312 36.1664 113.831 4.6875 75 4.6875ZM109.474 29.2289V38.1375H87.0797L84.8555 29.2289H109.474ZM87.0797 40.3641H109.474V51.4992C109.474 62.6648 87.0797 62.6648 87.0797 51.4992V47.0461H78.1711L87.0797 40.3641ZM73.65 116.079H40.8375V102.016H26.775V69.2063H40.8375V102.016H73.65V116.079ZM60.8789 97.9148H47.5172L79.1625 64.8586H112.917L79.1836 98.6297V78.7898L60.8789 97.9148ZM118.537 116.084H79.1836V104.259H118.537V116.084ZM118.537 100.324H83.1164L118.537 64.8609V100.324Z" fill="#042859"/>
</svg>