<svg xmlns="http://www.w3.org/2000/svg" width="150" height="150" viewBox="0 0 150 150" fill="none">
<g clip-path="url(#clip0_17_736)">
<path d="M85.1834 62.7178V101.916C85.1834 103.332 84.8002 104.557 84.0339 105.591C83.2676 106.626 82.3601 107.143 81.3114 107.143H58.0796V75.784H42.5918V107.143H19.36C18.3113 107.143 17.4038 106.626 16.6375 105.591C15.8712 104.557 15.488 103.332 15.488 101.916V62.7178C15.488 62.6634 15.4981 62.5817 15.5183 62.4728C15.5384 62.3639 15.5485 62.2823 15.5485 62.2278L50.3357 23.5192L85.1229 62.2278C85.1632 62.3367 85.1834 62.5 85.1834 62.7178ZM98.6748 57.083L94.9238 63.1261C94.6011 63.6161 94.1777 63.9155 93.6533 64.0244H93.4718C92.9475 64.0244 92.524 63.8339 92.2013 63.4528L50.3357 16.3328L8.47007 63.4528C7.98607 63.8883 7.50208 64.0789 7.01808 64.0244C6.49375 63.9155 6.07026 63.6161 5.74759 63.1261L1.99662 57.083C1.67396 56.5386 1.5328 55.8989 1.57313 55.1639C1.61346 54.4289 1.83529 53.8437 2.23862 53.4081L45.7377 4.49154C47.0284 3.07604 48.5611 2.36829 50.3357 2.36829C52.1104 2.36829 53.643 3.07604 54.9337 4.49154L69.6955 21.151V5.22652C69.6955 4.46432 69.877 3.83823 70.24 3.34825C70.603 2.85827 71.0668 2.61328 71.6315 2.61328H83.2474C83.8121 2.61328 84.2759 2.85827 84.6389 3.34825C85.0019 3.83823 85.1834 4.46432 85.1834 5.22652V38.5453L98.4328 53.4081C98.8361 53.8437 99.0579 54.4289 99.0983 55.1639C99.1386 55.8989 98.9974 56.5386 98.6748 57.083Z" fill="#042859"/>
</g>
<path d="M112.751 101.786C110.738 101.25 108.725 100.179 107.215 98.5715C105.705 98.0358 105.201 96.4286 105.201 95.3572C105.201 94.2858 105.704 92.6786 106.711 92.1429C108.221 91.0715 109.731 90.0001 111.241 90.5358C114.262 90.5358 116.778 92.1429 118.288 94.2858L122.819 87.8572C121.309 86.2501 119.798 85.1786 118.288 84.1072C116.778 83.0358 114.765 82.5001 112.751 82.5001V75.0001H106.711V82.5001C104.194 83.0358 101.678 84.6429 99.6642 86.7858C97.6508 89.4643 96.1407 92.6786 96.6441 95.8929C96.6441 99.1072 97.6508 102.321 99.6642 104.464C102.181 107.143 105.705 108.75 108.725 110.357C110.235 110.893 112.248 111.964 113.758 113.036C114.765 114.107 115.268 115.714 115.268 117.321C115.268 118.929 114.765 120.536 113.758 122.143C112.248 123.75 110.235 124.286 108.725 124.286C106.711 124.286 104.194 123.75 102.684 122.143C101.174 121.071 99.6642 119.464 98.6575 117.857L93.624 123.75C95.134 125.893 96.6441 127.5 98.6575 129.107C101.174 130.714 104.194 132.321 107.215 132.321V139.286H112.751V131.25C115.772 130.714 118.288 129.107 120.302 126.964C122.819 124.286 124.329 120 124.329 116.25C124.329 113.036 123.322 109.286 120.805 107.143C118.288 104.464 115.772 102.857 112.751 101.786ZM109.731 64.2858C87.5837 64.2858 69.4629 83.5715 69.4629 107.143C69.4629 130.714 87.5837 150 109.731 150C131.879 150 150 130.714 150 107.143C150 83.5715 131.879 64.2858 109.731 64.2858ZM109.731 144.107C90.6038 144.107 74.9998 127.5 74.9998 107.143C74.9998 86.7858 90.6038 70.1786 109.731 70.1786C128.859 70.1786 144.463 86.7858 144.463 107.143C144.463 127.5 128.859 144.107 109.731 144.107Z" fill="#042859"/>
<defs>
<clipPath id="clip0_17_736">
<rect width="100.671" height="107.143" fill="white"/>
</clipPath>
</defs>
</svg>