<svg xmlns="http://www.w3.org/2000/svg" width="226" height="201" viewBox="0 0 226 201" fill="none">
<path d="M199.5 13.125C197 5.75 190 0.5 181.75 0.5H44.25C36 0.5 29.125 5.75 26.5 13.125L0.5 88V188C0.5 194.875 6.125 200.5 13 200.5H25.5C32.375 200.5 38 194.875 38 188V175.5H188V188C188 194.875 193.625 200.5 200.5 200.5H213C219.875 200.5 225.5 194.875 225.5 188V88L199.5 13.125ZM44.25 138C33.875 138 25.5 129.625 25.5 119.25C25.5 108.875 33.875 100.5 44.25 100.5C54.625 100.5 63 108.875 63 119.25C63 129.625 54.625 138 44.25 138ZM181.75 138C171.375 138 163 129.625 163 119.25C163 108.875 171.375 100.5 181.75 100.5C192.125 100.5 200.5 108.875 200.5 119.25C200.5 129.625 192.125 138 181.75 138ZM25.5 75.5L44.25 19.25H181.75L200.5 75.5H25.5Z" fill="#042859"/>
</svg>