<svg xmlns="http://www.w3.org/2000/svg" width="150" height="150" viewBox="0 0 150 150" fill="none">
<path d="M82.0312 14.0625C80.1664 14.0625 78.378 14.8033 77.0594 16.1219C75.7408 17.4405 75 19.2289 75 21.0938C75 22.9586 75.7408 24.747 77.0594 26.0656C78.378 27.3842 80.1664 28.125 82.0312 28.125H90.4687L93.6562 42.1875H56.25V35.1562C56.25 33.2914 55.5092 31.503 54.1906 30.1844C52.8719 28.8658 51.0835 28.125 49.2187 28.125H35.1562C33.2914 28.125 31.503 28.8658 30.1844 30.1844C28.8657 31.503 28.125 33.2914 28.125 35.1562C28.125 37.0211 28.8657 38.8095 30.1844 40.1281C31.503 41.4467 33.2914 42.1875 35.1562 42.1875H42.1875V48.525L38.7656 65.6437C32.2404 65.8775 25.9629 68.2013 20.8583 72.2725C15.7536 76.3437 12.0919 81.9471 10.4126 88.2569C8.73335 94.5666 9.12546 101.249 11.5311 107.319C13.9368 113.389 18.2288 118.526 23.7746 121.972C29.3203 125.418 35.8265 126.992 42.3342 126.461C48.842 125.93 55.007 123.322 59.9207 119.023C64.8345 114.723 68.237 108.958 69.6269 102.579C71.0168 96.199 70.3205 89.5415 67.6406 83.5875L97.7625 60.4125L99.3843 67.5844C92.3958 70.2168 86.617 75.3235 83.1447 81.935C79.6725 88.5465 78.7484 96.2028 80.548 103.451C82.3476 110.698 86.7455 117.033 92.9071 121.253C99.0686 125.472 106.565 127.283 113.973 126.341C121.381 125.399 128.186 121.769 133.095 116.142C138.004 110.514 140.677 103.28 140.605 95.8129C140.533 88.3453 137.722 81.1641 132.705 75.6321C127.689 70.1002 120.816 66.6025 113.391 65.8031L102.956 19.5469C102.605 17.9894 101.734 16.5978 100.487 15.6011C99.2396 14.6043 97.6903 14.0617 96.0937 14.0625H82.0312ZM52.5562 68.3906L54.9843 56.25H80.1093L59.0531 72.4406C57.0664 70.8228 54.8835 69.4621 52.5562 68.3906ZM23.4375 96.0938C23.4375 88.4062 28.725 81.9563 35.8593 80.175L32.9531 94.7063C32.6728 96.1089 32.827 97.5636 33.395 98.8764C33.9631 100.189 34.918 101.297 36.1323 102.053C37.3466 102.809 38.7626 103.177 40.1912 103.107C41.6199 103.037 42.9933 102.533 44.1281 101.662L55.8843 92.625C56.374 94.8756 56.3842 97.2041 55.9144 99.4589C55.4447 101.714 54.5054 103.844 53.1577 105.712C51.81 107.58 50.0842 109.143 48.0924 110.3C46.1007 111.457 43.8877 112.181 41.5975 112.426C39.3074 112.671 36.9913 112.431 34.8 111.721C32.6087 111.012 30.5913 109.849 28.8792 108.308C27.167 106.768 25.7984 104.884 24.8625 102.78C23.9265 100.675 23.4442 98.397 23.4468 96.0938H23.4375ZM102.534 81.5625L105.637 95.2969C106.075 97.087 107.198 98.6336 108.765 99.604C110.332 100.574 112.217 100.891 114.015 100.485C115.812 100.08 117.379 98.9847 118.377 97.4358C119.376 95.8869 119.726 94.0078 119.353 92.2031L116.85 81.1125C120.239 82.6273 123.015 85.247 124.723 88.5434C126.431 91.8398 126.97 95.6181 126.253 99.2608C125.536 102.903 123.604 106.195 120.774 108.598C117.944 111.001 114.382 112.372 110.671 112.489C106.961 112.606 103.32 111.46 100.344 109.24C97.3688 107.02 95.2343 103.856 94.2896 100.266C93.345 96.6751 93.646 92.8704 95.1436 89.4732C96.6411 86.076 99.2466 83.2872 102.534 81.5625Z" fill="#042859"/>
</svg>