<svg xmlns="http://www.w3.org/2000/svg" width="150" height="150" viewBox="0 0 150 150" fill="none">
<rect width="150" height="150" fill="white"/>
<path d="M86.25 0C92.4609 0 97.5 6.2959 97.5 14.0625V28.125H109.383C113.367 28.125 116.977 30.0879 120 33.6035L138.117 56.25C140.93 59.7656 142.5 64.541 142.5 69.5215V103.125C146.648 103.125 150 107.314 150 112.5C150 117.686 146.648 121.875 142.5 121.875H135C135 137.402 124.922 150 112.5 150C99.8672 150 90 137.402 90 121.875H60C60 137.402 49.9219 150 37.5 150C24.8672 150 15 137.402 15 121.875H11.25C5.03672 121.875 0 115.576 0 107.812V14.0625C0 6.2959 5.03672 0 11.25 0H86.25ZM97.5 46.875V75H127.5V69.5215L109.383 46.875H97.5ZM37.5 107.812C31.2891 107.812 26.25 114.111 26.25 121.875C26.25 129.639 31.2891 135.938 37.5 135.938C43.7109 135.938 48.75 129.639 48.75 121.875C48.75 114.111 43.7109 107.812 37.5 107.812ZM112.5 135.938C118.711 135.938 123.75 129.639 123.75 121.875C123.75 114.111 118.711 107.812 112.5 107.812C106.289 107.812 101.25 114.111 101.25 121.875C101.25 129.639 106.289 135.938 112.5 135.938Z" fill="#042859"/>
</svg>