<svg xmlns="http://www.w3.org/2000/svg" width="150" height="150" viewBox="0 0 150 150" fill="none">
<path d="M118.694 12.5H56.3124C49.3686 12.5 43.7499 18.1188 43.7499 25.0625V60.2938L14.3624 89.3062C13.4819 90.1771 12.8799 91.2899 12.6329 92.5035C12.3859 93.717 12.505 94.9766 12.9751 96.1224C13.4452 97.2681 14.245 98.2484 15.2732 98.9388C16.3014 99.6292 17.5114 99.9985 18.7499 100V131.25C18.7499 132.908 19.4084 134.497 20.5805 135.669C21.7526 136.842 23.3423 137.5 24.9999 137.5H125C126.657 137.5 128.247 136.842 129.419 135.669C130.591 134.497 131.25 132.908 131.25 131.25V25.0562C131.25 18.1187 125.637 12.5 118.694 12.5ZM68.2624 94.4437V125H31.2499V90.2L49.9186 71.7687L68.2624 90.5375V94.4437ZM81.2499 56.25H68.7499V43.75H81.2499V56.25ZM106.25 106.25H93.7499V93.75H106.25V106.25ZM106.25 81.25H93.7499V68.75H106.25V81.25ZM106.25 56.25H93.7499V43.75H106.25V56.25Z" fill="#042859"/>
<path d="M43.75 93.75H56.25V106.25H43.75V93.75Z" fill="#042859"/>
</svg>