<svg xmlns="http://www.w3.org/2000/svg" width="150" height="150" viewBox="0 0 150 150" fill="none">
<path d="M131.25 37.5H137.5V25H131.25V18.75H112.5V25H37.5V18.75H18.75V25H12.5V37.5H18.75V125H12.5V137.5H43.75V125H37.5V37.5H68.75V43.75H71.875V66.375C68.75 67.4375 66.8125 70.3125 66.8125 73.5C66.8125 76.25 68.25 78.75 70.625 80.125V87.5H74.5C76.625 87.5 78.375 89.1875 78.4375 91.3125C78.4375 93.5 76.75 95.25 74.5625 95.25C73.8803 95.2471 73.2106 95.067 72.6189 94.7273C72.0273 94.3877 71.534 93.9002 71.1875 93.3125C70.6736 92.4257 69.8285 91.7793 68.8381 91.5156C67.8477 91.2519 66.7931 91.3924 65.9062 91.9062C65.0194 92.4201 64.3731 93.2652 64.1093 94.2556C63.8456 95.2461 63.9861 96.3007 64.5 97.1875C66.5625 100.75 70.375 102.937 74.5 102.937C80.875 102.875 86 97.625 85.9375 91.25C85.875 86.4375 82.875 82.125 78.3125 80.5V80.125C82 78.125 83.375 73.625 81.4375 70C80.75 68.75 79.625 67.5625 78.3125 66.875V43.75H81.25V37.5H112.5V125H106.25V137.5H137.5V125H131.25V37.5ZM31.25 95.5625V104.437L25 110.687V101.813L31.25 95.5625ZM25 125V120.25L31.25 114V122.875L29.125 125H25ZM25 45.5625L31.25 39.3125V48.1875L25 54.4375V45.5625ZM25 64.3125L31.25 58.0625V66.9375L25 73.1875V64.3125ZM25 83.0625L31.25 76.8125V85.6875L25 91.9375V82.75V83.0625ZM125 95.5625V104.437L118.75 110.687V101.813L125 95.5625ZM118.75 125V120.25L125 114V122.875L122.875 125H118.75ZM118.75 45.5625L125 39.3125V48.1875L118.75 54.4375V45.5625ZM118.75 64.3125L125 58.0625V66.9375L118.75 73.1875V64.3125ZM118.75 83.0625L125 76.8125V85.6875L118.75 91.9375V82.75V83.0625Z" fill="#042859"/>
</svg>