<svg width="48" height="48" viewBox="0 0 48 48" fill="none" xmlns="http://www.w3.org/2000/svg">
<g clip-path="url(#clip0_17_1415)">
<path d="M36.438 0.437752C36.5774 0.298062 36.7429 0.187233 36.9251 0.111614C37.1074 0.0359947 37.3027 -0.00292969 37.5 -0.00292969C37.6973 -0.00292969 37.8927 0.0359947 38.0749 0.111614C38.2572 0.187233 38.4227 0.298062 38.562 0.437752L47.562 9.43775C47.7017 9.57709 47.8125 9.74262 47.8882 9.92485C47.9638 10.1071 48.0027 10.3025 48.0027 10.4998C48.0027 10.6971 47.9638 10.8924 47.8882 11.0747C47.8125 11.2569 47.7017 11.4224 47.562 11.5618L17.562 41.5618C17.4181 41.7047 17.2466 41.817 17.058 41.8918L2.05803 47.8918C1.78544 48.0009 1.48682 48.0276 1.19919 47.9686C0.911558 47.9096 0.64757 47.7674 0.439951 47.5598C0.232331 47.3522 0.0902108 47.0882 0.0312084 46.8006C-0.0277939 46.513 -0.00108343 46.2143 0.108029 45.9417L6.10803 30.9418C6.18281 30.7532 6.29508 30.5817 6.43803 30.4378L36.438 0.437752ZM33.621 7.49975L40.5 14.3788L44.379 10.4998L37.5 3.62075L33.621 7.49975ZM38.379 16.4998L31.5 9.62075L12 29.1208V29.9998H13.5C13.8979 29.9998 14.2794 30.1578 14.5607 30.4391C14.842 30.7204 15 31.1019 15 31.4998V32.9998H16.5C16.8979 32.9998 17.2794 33.1578 17.5607 33.4391C17.842 33.7204 18 34.1019 18 34.4998V35.9998H18.879L38.379 16.4998ZM9.09603 32.0247L8.77803 32.3428L4.19403 43.8058L15.657 39.2218L15.975 38.9038C15.6889 38.7968 15.4422 38.6051 15.268 38.3542C15.0937 38.1033 15.0003 37.8052 15 37.4998V35.9998H13.5C13.1022 35.9998 12.7207 35.8417 12.4394 35.5604C12.1581 35.2791 12 34.8976 12 34.4998V32.9998H10.5C10.1946 32.9995 9.89646 32.906 9.64556 32.7318C9.39466 32.5576 9.20294 32.3109 9.09603 32.0247Z" fill="#042859"/>
</g>
<defs>
<clipPath id="clip0_17_1415">
<rect width="48" height="48" fill="white"/>
</clipPath>
</defs>
</svg>
