<svg width="48" height="48" viewBox="0 0 48 48" fill="none" xmlns="http://www.w3.org/2000/svg">
<path d="M39.3725 6.71973H8.62749C8.12159 6.71973 7.6364 6.9207 7.27867 7.27843C6.92094 7.63616 6.71997 8.12134 6.71997 8.62725V39.3727C6.7201 39.8785 6.92112 40.3636 7.27884 40.7212C7.63656 41.0788 8.12167 41.2797 8.62749 41.2797H25.1793V27.8964H20.6755V22.6807H25.1793V18.834C25.1793 14.37 27.9057 11.9397 31.8878 11.9397C33.7953 11.9397 35.4345 12.0813 35.9126 12.1452V16.8103L33.1507 16.8117C30.9849 16.8117 30.5659 17.8408 30.5659 19.3509V22.6812H35.7307L35.0582 27.8968H30.5659V41.2797H39.3729C39.8788 41.2796 40.3638 41.0786 40.7214 40.7209C41.0791 40.3631 41.28 39.878 41.28 39.3722V8.62725C41.28 8.12134 41.079 7.63616 40.7213 7.27843C40.3635 6.9207 39.8784 6.71973 39.3725 6.71973Z" fill="white"/>
</svg>
