<svg xmlns="http://www.w3.org/2000/svg" width="100" height="100" viewBox="0 0 100 100" fill="none">
<g clip-path="url(#clip0_17_748)">
<path d="M84.6152 58.5366V95.122C84.6152 96.4431 84.2346 97.5864 83.4734 98.5519C82.7122 99.5173 81.8107 100 80.7691 100H57.6921V70.7317H42.3075V100H19.2306C18.1889 100 17.2875 99.5173 16.5263 98.5519C15.7651 97.5864 15.3845 96.4431 15.3845 95.122V58.5366C15.3845 58.4858 15.3945 58.4096 15.4145 58.3079C15.4345 58.2063 15.4446 58.1301 15.4446 58.0793L49.9998 21.9512L84.5551 58.0793C84.5952 58.1809 84.6152 58.3334 84.6152 58.5366ZM98.0166 53.2775L94.2907 58.9177C93.9702 59.375 93.5495 59.6545 93.0287 59.7561H92.8484C92.3275 59.7561 91.9069 59.5783 91.5864 59.2226L49.9998 15.2439L8.4133 59.2226C7.93253 59.6291 7.45176 59.8069 6.97099 59.7561C6.45016 59.6545 6.02949 59.375 5.70898 58.9177L1.98301 53.2775C1.6625 52.7693 1.52228 52.1723 1.56234 51.4863C1.60241 50.8003 1.82276 50.2541 2.2234 49.8476L45.4325 4.1921C46.7146 2.87096 48.237 2.21039 49.9998 2.21039C51.7626 2.21039 53.2851 2.87096 54.5671 4.1921L69.2306 19.7409V4.87807C69.2306 4.16669 69.4109 3.58234 69.7715 3.12502C70.132 2.66771 70.5928 2.43905 71.1537 2.43905H82.6921C83.253 2.43905 83.7138 2.66771 84.0743 3.12502C84.4349 3.58234 84.6152 4.16669 84.6152 4.87807V35.9756L97.7763 49.8476C98.1769 50.2541 98.3973 50.8003 98.4373 51.4863C98.4774 52.1723 98.3372 52.7693 98.0166 53.2775Z" fill="#042859"/>
</g>
<defs>
<clipPath id="clip0_17_748">
<rect width="100" height="100" fill="white"/>
</clipPath>
</defs>
</svg>