<svg width="48" height="48" viewBox="0 0 48 48" fill="none" xmlns="http://www.w3.org/2000/svg">
<path d="M44.3672 23.672L26.2547 5.56887L25.0406 4.35481C24.764 4.08001 24.3899 3.92578 24 3.92578C23.6101 3.92578 23.236 4.08001 22.9593 4.35481L3.63279 23.672C3.34934 23.9543 3.12533 24.2906 2.97397 24.6609C2.82261 25.0313 2.74698 25.4282 2.75154 25.8282C2.77029 27.4782 4.14372 28.7954 5.79372 28.7954H7.78591V44.0626H40.214V28.7954H42.2484C43.05 28.7954 43.8046 28.4814 44.3718 27.9142C44.6511 27.6358 44.8724 27.3048 45.0229 26.9403C45.1733 26.5758 45.25 26.1851 45.2484 25.7907C45.2484 24.9939 44.9343 24.2392 44.3672 23.672ZM26.625 40.6876H21.375V31.1251H26.625V40.6876ZM36.839 25.4204V40.6876H29.625V30.0001C29.625 28.9642 28.7859 28.1251 27.75 28.1251H20.25C19.214 28.1251 18.375 28.9642 18.375 30.0001V40.6876H11.1609V25.4204H6.66091L24.0047 8.09074L25.0875 9.17355L41.3437 25.4204H36.839Z" fill="#042859"/>
</svg>
