<svg width="48" height="48" viewBox="0 0 48 48" fill="none" xmlns="http://www.w3.org/2000/svg">
<path d="M36 6H12C8.6 6 6 8.6 6 12V36C6 39.4 8.6 42 12 42H36C39.4 42 42 39.4 42 36V12C42 8.6 39.4 6 36 6ZM24 18C27.4 18 30 20.6 30 24C30 27.4 27.4 30 24 30C20.6 30 18 27.4 18 24C18 20.6 20.6 18 24 18ZM31.6 14C31.6 12.6 32.8 11.6 34 11.6C35.2 11.6 36.4 12.8 36.4 14C36.4 15.2 35.4 16.4 34 16.4C32.6 16.4 31.6 15.4 31.6 14ZM36 38H12C10.8 38 10 37.2 10 36V24H14C14 29.6 18.4 34 24 34C29.6 34 34 29.6 34 24H38V36C38 37.2 37.2 38 36 38Z" fill="white"/>
</svg>
