<svg width="100" height="100" viewBox="0 0 100 100" fill="none" xmlns="http://www.w3.org/2000/svg">
<path d="M87.725 77.3349L68.83 58.4399C71.7756 53.6052 73.3293 48.0512 73.32 42.3899C73.32 25.3049 58.515 10.5049 41.43 10.5049C37.368 10.5042 33.3457 11.3038 29.5928 12.858C25.8399 14.4121 22.43 16.6904 19.5577 19.5626C16.6855 22.4349 14.4072 25.8448 12.8531 29.5977C11.2989 33.3506 10.4993 37.3729 10.5 41.4349C10.5 58.5149 25.305 73.3199 42.385 73.3199C47.8598 73.3248 53.2366 71.868 57.96 69.0999L76.955 88.1049C77.8483 88.9958 79.0584 89.4962 80.32 89.4962C81.5816 89.4962 82.7917 88.9958 83.685 88.1049L88.4 83.3899C90.255 81.5349 89.58 79.1899 87.725 77.3349ZM20.02 41.4349C20.0193 38.6229 20.5726 35.8383 21.6483 33.2401C22.724 30.6419 24.3009 28.2811 26.2891 26.2925C28.2772 24.3039 30.6377 22.7264 33.2356 21.6501C35.8335 20.5738 38.618 20.0199 41.43 20.0199C53.26 20.0199 63.8 30.5549 63.8 42.3899C63.7987 48.0691 61.542 53.5153 57.5262 57.5311C53.5104 61.5469 48.0642 63.8036 42.385 63.8049C30.555 63.7999 20.02 53.2599 20.02 41.4349Z" fill="#042859"/>
</svg>
