<svg width="100" height="100" viewBox="0 0 100 100" fill="none" xmlns="http://www.w3.org/2000/svg">
<path d="M49.9999 91.6664C66.0791 91.6664 79.1666 78.5788 79.1666 62.4997C79.1666 46.4205 66.0791 33.333 49.9999 33.333C33.9166 33.333 20.8333 46.4205 20.8333 62.4997C20.8333 78.5788 33.9166 91.6664 49.9999 91.6664ZM49.9999 41.6663C61.4874 41.6663 70.8333 51.0122 70.8333 62.4997C70.8333 73.9872 61.4874 83.333 49.9999 83.333C38.5124 83.333 29.1666 73.9872 29.1666 62.4997C29.1666 51.0122 38.5124 41.6663 49.9999 41.6663ZM45.8333 8.33301H29.1666V31.3247C34.1528 27.9881 39.8698 25.9028 45.8333 25.2455V8.33301ZM70.8333 8.33301H54.1666V25.2455C60.13 25.9028 65.8471 27.9881 70.8333 31.3247V8.33301Z" fill="#042859"/>
<path d="M41.7459 65.8788L39.7959 77.2372L50.0001 71.8747L60.2042 77.2372L58.2542 65.8788L66.5126 57.8288L55.1042 56.1705L50.0001 45.833L44.8959 56.1705L33.4875 57.8288L41.7459 65.8788Z" fill="#042859"/>
</svg>
