<svg xmlns="http://www.w3.org/2000/svg" width="150" height="150" viewBox="0 0 150 150" fill="none">
<path d="M108.875 62.5L83.8125 37.5H56.25V50H78.6875L91.1875 62.5H40.625C25 62.5 12.5 75 12.5 90.625C12.5 106.25 25 118.75 40.625 118.75C54.5 118.75 66 108.625 68.25 95.4375L81.5 87.5C81.25 88.5625 81.25 89.5625 81.25 90.625C81.25 106.25 93.75 118.75 109.375 118.75C125 118.75 137.5 106.25 137.5 90.625C137.5 75 125 62.5 109.375 62.5H108.875ZM55.25 95.375C53.125 101.688 47.375 106.25 40.4375 106.25C36.2935 106.25 32.3192 104.604 29.389 101.674C26.4587 98.7433 24.8125 94.769 24.8125 90.625C24.8125 86.481 26.4587 82.5067 29.389 79.5765C32.3192 76.6462 36.2935 75 40.4375 75C47.4375 75 53.125 79.625 55.25 85.9375H37.5V95.3125L55.25 95.375ZM109.187 106.25C105.043 106.25 101.069 104.604 98.139 101.674C95.2087 98.7433 93.5625 94.769 93.5625 90.625C93.5625 86.481 95.2087 82.5067 98.139 79.5765C101.069 76.6462 105.043 75 109.187 75C113.332 75 117.306 76.6462 120.236 79.5765C123.166 82.5067 124.812 86.481 124.812 90.625C124.812 94.769 123.166 98.7433 120.236 101.674C117.306 104.604 113.332 106.25 109.187 106.25Z" fill="#042859"/>
</svg>