<svg xmlns="http://www.w3.org/2000/svg" width="150" height="150" viewBox="0 0 150 150" fill="none">
<path d="M89.9461 34.0044C92.2538 34.0044 94.3775 34.45 96.318 35.3416C102.078 38.2407 105.479 43.7506 105.522 49.8946V92.2162C104.442 98.9442 96.7406 97.1147 96.5541 92.2162V52.2546C95.8679 49.9757 91.4675 50.9206 91.3623 52.2546V143.978C90.2434 153.344 78.1406 150.594 77.832 143.82V87.6537C77.0581 84.031 71.965 85.6771 71.8534 87.8111C72.0694 106.48 72.0108 125.15 72.0108 143.82C70.8038 153.138 58.7599 150.754 58.4804 143.978L58.3231 52.2546C57.6178 50.0249 53.5403 50.8801 53.4458 52.2546V92.2162C52.3653 98.9442 44.6645 97.1147 44.478 92.2162V49.8946C44.5869 44.0126 46.7426 38.12 51.8725 35.3416C53.5508 34.45 55.596 34.0042 58.0084 34.0042L89.9461 34.0044ZM89.7875 14.7846C89.7875 22.95 83.1681 29.5694 75.0028 29.5694C66.8375 29.5694 60.2181 22.95 60.2181 14.7846C60.218 6.61938 66.8374 0 75.0025 0C83.1681 0 89.7875 6.61938 89.7875 14.7846Z" fill="#042859"/>
</svg>