<svg width="48" height="48" viewBox="0 0 48 48" fill="none" xmlns="http://www.w3.org/2000/svg">
<path d="M4.5 3C4.10218 3 3.72064 3.15804 3.43934 3.43934C3.15804 3.72064 3 4.10218 3 4.5V13.5C3 13.8978 2.84196 14.2794 2.56066 14.5607C2.27936 14.842 1.89782 15 1.5 15C1.10218 15 0.720644 14.842 0.43934 14.5607C0.158035 14.2794 0 13.8978 0 13.5V4.5C0 3.30653 0.474106 2.16193 1.31802 1.31802C2.16193 0.474106 3.30653 0 4.5 0L13.5 0C13.8978 0 14.2794 0.158035 14.5607 0.43934C14.842 0.720644 15 1.10218 15 1.5C15 1.89782 14.842 2.27936 14.5607 2.56066C14.2794 2.84196 13.8978 3 13.5 3H4.5ZM33 1.5C33 1.10218 33.158 0.720644 33.4393 0.43934C33.7206 0.158035 34.1022 0 34.5 0L43.5 0C44.6935 0 45.8381 0.474106 46.682 1.31802C47.5259 2.16193 48 3.30653 48 4.5V13.5C48 13.8978 47.842 14.2794 47.5607 14.5607C47.2794 14.842 46.8978 15 46.5 15C46.1022 15 45.7206 14.842 45.4393 14.5607C45.158 14.2794 45 13.8978 45 13.5V4.5C45 4.10218 44.842 3.72064 44.5607 3.43934C44.2794 3.15804 43.8978 3 43.5 3H34.5C34.1022 3 33.7206 2.84196 33.4393 2.56066C33.158 2.27936 33 1.89782 33 1.5ZM1.5 33C1.89782 33 2.27936 33.158 2.56066 33.4393C2.84196 33.7206 3 34.1022 3 34.5V43.5C3 43.8978 3.15804 44.2794 3.43934 44.5607C3.72064 44.842 4.10218 45 4.5 45H13.5C13.8978 45 14.2794 45.158 14.5607 45.4393C14.842 45.7206 15 46.1022 15 46.5C15 46.8978 14.842 47.2794 14.5607 47.5607C14.2794 47.842 13.8978 48 13.5 48H4.5C3.30653 48 2.16193 47.5259 1.31802 46.682C0.474106 45.8381 0 44.6935 0 43.5L0 34.5C0 34.1022 0.158035 33.7206 0.43934 33.4393C0.720644 33.158 1.10218 33 1.5 33ZM46.5 33C46.8978 33 47.2794 33.158 47.5607 33.4393C47.842 33.7206 48 34.1022 48 34.5V43.5C48 44.6935 47.5259 45.8381 46.682 46.682C45.8381 47.5259 44.6935 48 43.5 48H34.5C34.1022 48 33.7206 47.842 33.4393 47.5607C33.158 47.2794 33 46.8978 33 46.5C33 46.1022 33.158 45.7206 33.4393 45.4393C33.7206 45.158 34.1022 45 34.5 45H43.5C43.8978 45 44.2794 44.842 44.5607 44.5607C44.842 44.2794 45 43.8978 45 43.5V34.5C45 34.1022 45.158 33.7206 45.4393 33.4393C45.7206 33.158 46.1022 33 46.5 33Z" fill="#042859"/>
<path d="M9 42C9 42 6 42 6 39C6 36 9 27 24 27C39 27 42 36 42 39C42 42 39 42 39 42H9ZM33 15C33 17.3869 32.0518 19.6761 30.364 21.364C28.6761 23.0518 26.3869 24 24 24C21.6131 24 19.3239 23.0518 17.636 21.364C15.9482 19.6761 15 17.3869 15 15C15 12.6131 15.9482 10.3239 17.636 8.63604C19.3239 6.94821 21.6131 6 24 6C26.3869 6 28.6761 6.94821 30.364 8.63604C32.0518 10.3239 33 12.6131 33 15Z" fill="#042859"/>
</svg>
