<svg width="48" height="48" viewBox="0 0 48 48" fill="none" xmlns="http://www.w3.org/2000/svg">
<path d="M42.2251 20.6615L38.2637 16.7015C38.2089 16.6466 38.1439 16.603 38.0724 16.5733C38.0008 16.5436 37.924 16.5283 37.8465 16.5283C37.769 16.5283 37.6923 16.5436 37.6207 16.5733C37.5491 16.603 37.4841 16.6466 37.4294 16.7015L26.5896 27.5399L26.6112 27.5615L26.5766 27.5519L25.0929 33.0882L25.0973 33.0892C25.0597 33.1976 25.0551 33.3147 25.084 33.4258C25.1129 33.5368 25.1741 33.6368 25.2598 33.7131C25.3455 33.7894 25.4519 33.8386 25.5656 33.8545C25.6792 33.8704 25.795 33.8523 25.8984 33.8024L25.8993 33.8068L31.3785 32.3384L31.3752 32.3255L31.3843 32.3346L42.2246 21.4948C42.3349 21.3842 42.3969 21.2344 42.3969 21.0782C42.397 20.9221 42.3352 20.7722 42.2251 20.6615ZM26.8968 32.0144L27.7781 28.7284L30.1838 31.1341L26.8968 32.0144Z" fill="#042859"/>
<path d="M34.5441 35.1502H30.9513C30.795 35.1505 30.6452 35.2127 30.5347 35.3233C30.4242 35.4339 30.362 35.5838 30.3619 35.7401L30.3629 35.7459V39.9291H10.3737V10.4681H12.7723V11.9412C12.7713 11.9571 12.7675 11.9715 12.7675 11.9878C12.7675 12.4668 13.1563 12.8585 13.6382 12.8585L13.6449 12.858V12.8619H27.0979C27.3286 12.8616 27.5498 12.7699 27.713 12.6067C27.8761 12.4436 27.9679 12.2224 27.9681 11.9916C27.9681 11.9844 27.9662 11.9777 27.9662 11.9705V10.4681H30.3624V14.6528L30.3614 14.6585C30.3613 14.736 30.3765 14.8127 30.406 14.8843C30.4356 14.9559 30.479 15.021 30.5338 15.0758C30.5885 15.1306 30.6535 15.174 30.7251 15.2037C30.7967 15.2333 30.8734 15.2485 30.9509 15.2484H34.5437C34.7 15.2483 34.8498 15.1862 34.9603 15.0757C35.0708 14.9651 35.133 14.8153 35.1331 14.659V8.2846H35.124C35.1245 8.26108 35.1312 8.239 35.1312 8.215C35.1312 7.54763 34.8662 6.90756 34.3945 6.43547C33.9228 5.96338 33.2829 5.69791 32.6155 5.6974C32.5963 5.6974 32.579 5.70268 32.5598 5.70316H25.5725V4.06924C25.5725 3.64636 25.2297 3.3046 24.8078 3.30364V3.2998H15.9518V3.30268C15.9446 3.30268 15.9384 3.30076 15.9312 3.30076C15.5088 3.30076 15.1661 3.643 15.1661 4.06588L15.1675 4.08028V5.70268H8.12879L8.11919 5.70172C7.45201 5.70249 6.81239 5.96789 6.34067 6.4397C5.86895 6.91151 5.60366 7.55119 5.60303 8.21836C5.60303 8.24092 5.60927 8.26156 5.60975 8.28412H5.60303V42.1587H5.60447L5.60303 42.1716C5.60315 42.502 5.66835 42.8291 5.7949 43.1342C5.92145 43.4394 6.10686 43.7166 6.34056 43.9501C6.57426 44.1835 6.85166 44.3687 7.15692 44.4949C7.46218 44.6212 7.78933 44.6861 8.11967 44.6859C8.15711 44.6859 8.19215 44.6763 8.22959 44.6748V44.6849H32.4696C32.5166 44.6873 32.5613 44.6988 32.6088 44.6988C33.2756 44.6987 33.9151 44.4338 34.3867 43.9623C34.8582 43.4909 35.1233 42.8514 35.1235 42.1846C35.1235 42.1755 35.1211 42.1673 35.1211 42.1582H35.1345V35.7396C35.1345 35.6622 35.1192 35.5855 35.0895 35.5139C35.0598 35.4424 35.0162 35.3774 34.9614 35.3226C34.9066 35.2679 34.8415 35.2245 34.7699 35.1949C34.6983 35.1653 34.6216 35.1501 34.5441 35.1502Z" fill="#042859"/>
</svg>
