<svg width="34" height="42" viewBox="0 0 34 42" fill="none" xmlns="http://www.w3.org/2000/svg">
<path d="M1 5V37C1 38.0609 1.42143 39.0783 2.17157 39.8284C2.92172 40.5786 3.93913 41 5 41H29C30.0609 41 31.0783 40.5786 31.8284 39.8284C32.5786 39.0783 33 38.0609 33 37V13.684C32.9999 13.1511 32.8934 12.6236 32.6866 12.1325C32.4799 11.6414 32.1771 11.1965 31.796 10.824L22.916 2.14C22.1687 1.40932 21.1651 1.00013 20.12 1H5C3.93913 1 2.92172 1.42143 2.17157 2.17157C1.42143 2.92172 1 3.93913 1 5V5Z" stroke="#042859" stroke-width="2" stroke-linecap="round" stroke-linejoin="round"/>
<path d="M21 1V9C21 10.0609 21.4214 11.0783 22.1716 11.8284C22.9217 12.5786 23.9391 13 25 13H33" stroke="#042859" stroke-width="2" stroke-linejoin="round"/>
</svg>
