<svg xmlns="http://www.w3.org/2000/svg" width="155" height="139" viewBox="0 0 155 139" fill="none">
<path d="M151.25 28.4559C148.845 22.8874 145.377 17.8413 141.041 13.6001C136.701 9.34616 131.585 5.96563 125.97 3.64233C120.147 1.22364 113.902 -0.0143855 107.597 0.000126111C98.7521 0.000126111 90.122 2.42228 82.6223 6.99746C80.8281 8.09191 79.1236 9.29402 77.5089 10.6038C75.8941 9.29402 74.1896 8.09191 72.3954 6.99746C64.8957 2.42228 56.2657 0.000126111 47.4204 0.000126111C41.051 0.000126111 34.879 1.22017 29.0479 3.64233C23.4141 5.97477 18.3366 9.3299 13.9767 13.6001C9.63472 17.8365 6.16622 22.8839 3.76779 28.4559C1.27387 34.2512 0 40.4052 0 46.7387C0 52.7134 1.22005 58.9392 3.6422 65.2727C5.66963 70.5655 8.57621 76.0557 12.2902 81.5998C18.1751 90.3733 26.2669 99.5237 36.3143 108.8C52.9644 124.176 69.453 134.797 70.1527 135.228L74.4049 137.955C76.2888 139.157 78.711 139.157 80.5949 137.955L84.8471 135.228C85.5468 134.779 102.017 124.176 118.685 108.8C128.733 99.5237 136.825 90.3733 142.71 81.5998C146.424 76.0557 149.348 70.5655 151.358 65.2727C153.78 58.9392 155 52.7134 155 46.7387C155.018 40.4052 153.744 34.2512 151.25 28.4559Z" fill="#042859"/>
</svg>